<svg width="22" height="15" viewBox="0 0 22 15" fill="none" xmlns="http://www.w3.org/2000/svg">
<path d="M0 2.93872C0 1.68098 1.23105 0.661621 2.75 0.661621H19.25C20.7668 0.661621 22 1.68098 22 2.93872V12.0471C22 13.3031 20.7668 14.3242 19.25 14.3242H2.75C1.23105 14.3242 0 13.3031 0 12.0471V2.93872ZM2.0625 2.93872V3.72503L9.47461 8.76311C10.3598 9.36796 11.6402 9.36796 12.5254 8.76311L19.9375 3.72503V2.9067C19.9375 2.62562 19.6281 2.33742 19.25 2.33742H2.75C2.37016 2.33742 2.0625 2.62562 2.0625 2.9067V2.93872ZM2.0625 5.93453V12.0471C2.0625 12.3602 2.37016 12.6164 2.75 12.6164H19.25C19.6281 12.6164 19.9375 12.3602 19.9375 12.0471V5.93453L13.8359 10.0831C12.1859 11.2039 9.81406 11.2039 8.12539 10.0831L2.0625 5.93453Z" fill="#3B5D50"/>
</svg>
