<svg width="29" height="29" viewBox="0 0 29 29" fill="none" xmlns="http://www.w3.org/2000/svg">
<path d="M28.213 0.842348C28.7851 1.22059 29.0853 1.8744 28.9776 2.52821L25.3526 25.0064C25.2677 25.5305 24.9335 25.9898 24.4464 26.2491C23.9593 26.5085 23.3759 26.5409 22.8605 26.3356L15.7067 23.4988L13.4355 27.5243C13.1409 28.0485 12.5122 28.3132 11.9062 28.1674C11.3001 28.0215 10.8753 27.5027 10.8753 26.9084V21.7211C10.8753 21.4347 10.9773 21.1537 11.1642 20.9268L20.5269 9.43916C20.6685 9.05552 20.1587 8.66648 19.7905 8.98528L9.65186 17.7334L7.83936 19.295C7.31827 19.7435 6.57628 19.8677 5.92491 19.6084L1.11046 17.6956C0.476082 17.4416 0.0456136 16.8688 0.00596516 16.2096C-0.0336833 15.5504 0.317489 14.929 0.917879 14.5994L26.2929 0.7667C26.8989 0.437093 27.6466 0.469513 28.2187 0.842348H28.213Z" fill="#2F2F2F"/>
</svg>
